<mxfile host="app.diagrams.net" agent="Mozilla/5.0 (Windows NT 10.0; Win64; x64) AppleWebKit/537.36 (KHTML, like Gecko) Chrome/135.0.0.0 Safari/537.36 Edg/135.0.0.0" version="26.2.13">
  <diagram name="第 1 页" id="iaHS5U53O0_xS7Kqwhow">
    <mxGraphModel dx="1207" dy="681" grid="1" gridSize="10" guides="1" tooltips="1" connect="1" arrows="1" fold="1" page="1" pageScale="1" pageWidth="827" pageHeight="1169" math="0" shadow="0">
      <root>
        <mxCell id="0" />
        <mxCell id="1" parent="0" />
        <mxCell id="qjmKkje2-8Gwqx5Zpf5n-1" value="" style="rounded=0;whiteSpace=wrap;html=1;fillColor=#f5f5f5;fontColor=#333333;strokeColor=#666666;align=right;labelPosition=left;verticalLabelPosition=top;verticalAlign=bottom;" vertex="1" parent="1">
          <mxGeometry x="120" y="190" width="530" height="240" as="geometry" />
        </mxCell>
        <mxCell id="qjmKkje2-8Gwqx5Zpf5n-2" style="edgeStyle=orthogonalEdgeStyle;rounded=0;orthogonalLoop=1;jettySize=auto;html=1;entryX=0;entryY=0.5;entryDx=0;entryDy=0;" edge="1" parent="1" source="qjmKkje2-8Gwqx5Zpf5n-3" target="qjmKkje2-8Gwqx5Zpf5n-10">
          <mxGeometry relative="1" as="geometry" />
        </mxCell>
        <mxCell id="qjmKkje2-8Gwqx5Zpf5n-3" value="" style="rounded=1;whiteSpace=wrap;html=1;arcSize=5;fillColor=#dae8fc;strokeColor=#6c8ebf;" vertex="1" parent="1">
          <mxGeometry x="140" y="225" width="300" height="170" as="geometry" />
        </mxCell>
        <mxCell id="qjmKkje2-8Gwqx5Zpf5n-4" style="edgeStyle=orthogonalEdgeStyle;rounded=0;orthogonalLoop=1;jettySize=auto;html=1;exitX=1;exitY=0.5;exitDx=0;exitDy=0;entryX=0;entryY=0.5;entryDx=0;entryDy=0;" edge="1" parent="1" source="qjmKkje2-8Gwqx5Zpf5n-5" target="qjmKkje2-8Gwqx5Zpf5n-7">
          <mxGeometry relative="1" as="geometry" />
        </mxCell>
        <mxCell id="qjmKkje2-8Gwqx5Zpf5n-5" value="Gradio界面" style="rounded=1;whiteSpace=wrap;html=1;fillColor=#f8cecc;strokeColor=#b85450;fontSize=14;" vertex="1" parent="1">
          <mxGeometry x="170" y="280" width="100" height="60" as="geometry" />
        </mxCell>
        <mxCell id="qjmKkje2-8Gwqx5Zpf5n-6" style="edgeStyle=orthogonalEdgeStyle;rounded=0;orthogonalLoop=1;jettySize=auto;html=1;exitX=0;exitY=0.5;exitDx=0;exitDy=0;" edge="1" parent="1" source="qjmKkje2-8Gwqx5Zpf5n-7" target="qjmKkje2-8Gwqx5Zpf5n-5">
          <mxGeometry relative="1" as="geometry" />
        </mxCell>
        <mxCell id="qjmKkje2-8Gwqx5Zpf5n-7" value="Ultralytics&lt;div&gt;检测框架&lt;/div&gt;" style="rounded=1;whiteSpace=wrap;html=1;fillColor=#f8cecc;strokeColor=#b85450;fontSize=14;" vertex="1" parent="1">
          <mxGeometry x="314" y="280" width="100" height="60" as="geometry" />
        </mxCell>
        <mxCell id="qjmKkje2-8Gwqx5Zpf5n-8" value="&lt;font style=&quot;font-size: 14px;&quot;&gt;Docker封装镜像&lt;/font&gt;" style="text;html=1;align=center;verticalAlign=middle;whiteSpace=wrap;rounded=0;" vertex="1" parent="1">
          <mxGeometry x="140" y="225" width="110" height="30" as="geometry" />
        </mxCell>
        <mxCell id="qjmKkje2-8Gwqx5Zpf5n-9" style="edgeStyle=orthogonalEdgeStyle;rounded=0;orthogonalLoop=1;jettySize=auto;html=1;exitX=1;exitY=0.5;exitDx=0;exitDy=0;entryX=0;entryY=0.5;entryDx=0;entryDy=0;" edge="1" parent="1" source="qjmKkje2-8Gwqx5Zpf5n-10">
          <mxGeometry relative="1" as="geometry">
            <mxPoint x="740" y="310" as="targetPoint" />
          </mxGeometry>
        </mxCell>
        <mxCell id="qjmKkje2-8Gwqx5Zpf5n-10" value="Docker容器" style="rounded=1;whiteSpace=wrap;html=1;fontSize=14;" vertex="1" parent="1">
          <mxGeometry x="490" y="280" width="140" height="60" as="geometry" />
        </mxCell>
        <mxCell id="qjmKkje2-8Gwqx5Zpf5n-11" value="&lt;font style=&quot;font-size: 14px;&quot;&gt;物理机&lt;/font&gt;" style="text;html=1;align=center;verticalAlign=middle;whiteSpace=wrap;rounded=0;" vertex="1" parent="1">
          <mxGeometry x="120" y="190" width="60" height="30" as="geometry" />
        </mxCell>
        <mxCell id="qjmKkje2-8Gwqx5Zpf5n-12" style="edgeStyle=orthogonalEdgeStyle;rounded=0;orthogonalLoop=1;jettySize=auto;html=1;exitX=0;exitY=0.5;exitDx=0;exitDy=0;entryX=1;entryY=0.5;entryDx=0;entryDy=0;" edge="1" parent="1" target="qjmKkje2-8Gwqx5Zpf5n-10">
          <mxGeometry relative="1" as="geometry">
            <mxPoint x="740" y="310" as="sourcePoint" />
          </mxGeometry>
        </mxCell>
        <mxCell id="qjmKkje2-8Gwqx5Zpf5n-13" value="网络接口" style="edgeLabel;html=1;align=center;verticalAlign=middle;resizable=0;points=[];fontSize=13;" vertex="1" connectable="0" parent="qjmKkje2-8Gwqx5Zpf5n-12">
          <mxGeometry x="0.0111" y="4" relative="1" as="geometry">
            <mxPoint y="-14" as="offset" />
          </mxGeometry>
        </mxCell>
        <mxCell id="qjmKkje2-8Gwqx5Zpf5n-14" value="用户" style="rounded=1;whiteSpace=wrap;html=1;fontSize=14;fillColor=#dae8fc;strokeColor=#6c8ebf;" vertex="1" parent="1">
          <mxGeometry x="740" y="280" width="120" height="60" as="geometry" />
        </mxCell>
      </root>
    </mxGraphModel>
  </diagram>
</mxfile>
